<svg width="70" height="70" viewBox="0 0 70 70" fill="none" xmlns="http://www.w3.org/2000/svg">
<path d="M51.4686 36.2378H12.9909C12.6041 36.2378 12.2686 36.0183 12.1021 35.6971C11.9778 35.5304 11.9043 35.3236 11.9043 35.0997C11.9043 34.5472 12.3522 34.0994 12.9047 34.0994L51.5031 34.0996C48.4532 32.9005 46.1469 31.4636 44.4151 29.6214C41.521 26.5428 40.3741 22.4864 39.7922 17.0514C39.7333 16.5021 40.131 16.009 40.6803 15.9502C41.2297 15.8914 41.7227 16.2891 41.7815 16.8384C42.3501 22.1487 43.4364 25.6593 45.8728 28.251C48.2433 30.7725 52.0247 32.5673 58.3333 34.0996L58.2988 36.2378C51.9903 37.7701 48.2087 39.5648 45.8383 42.0863C43.4018 44.6781 42.3155 48.1887 41.747 53.499C41.6882 54.0483 41.1951 54.446 40.6458 54.3872C40.0964 54.3283 39.6988 53.8353 39.7576 53.286C40.3395 47.851 41.4864 43.7946 44.3806 40.7159C46.1124 38.8738 48.4186 37.4368 51.4686 36.2378Z" fill="white"/>
<path fill-rule="evenodd" clip-rule="evenodd" d="M35 67.2778C17.1735 67.2778 2.72222 52.8265 2.72222 35C2.72222 17.1735 17.1735 2.72222 35 2.72222C52.8265 2.72222 67.2778 17.1735 67.2778 35C67.2778 52.8265 52.8265 67.2778 35 67.2778ZM35 70C15.67 70 0 54.33 0 35C0 15.67 15.67 0 35 0C54.33 0 70 15.67 70 35C70 54.33 54.33 70 35 70Z" fill="white"/>
</svg>
