<svg width="2810" height="1683" viewBox="0 0 2810 1683" fill="none" xmlns="http://www.w3.org/2000/svg">
<path d="M2756.33 766.527C2584.31 558.992 2350.54 411.716 2089 346.122C1827.14 280.446 1551.12 300.086 1301.17 402.179C1051.21 504.272 840.377 683.484 699.389 913.7C558.576 1143.63 494.784 1412.44 517.272 1681.06M516.359 1682.14C516.331 1681.8 516.303 1681.47 516.275 1681.14C493.77 1412.32 557.612 1143.29 698.537 913.178C839.636 682.78 1050.63 503.427 1300.79 401.253C1550.94 299.08 1827.18 279.424 2089.24 345.152C2350.99 410.798 2584.94 558.19 2757.1 765.889C2757.26 766.081 2757.42 766.274 2757.58 766.466C2757.63 766.531 2757.68 766.595 2757.74 766.659" stroke="#671211"/>
<path d="M2548.54 1207.34C2451.18 955.978 2276.17 742.188 2048.92 597.061C1821.38 451.754 1553.38 382.874 1283.95 400.456C1014.52 418.038 757.748 521.164 551.047 694.808C344.602 868.236 198.878 1102.96 135.047 1364.84M133.839 1365.58C133.918 1365.25 133.996 1364.93 134.075 1364.6C197.957 1102.51 343.795 867.608 550.404 694.042C757.268 520.262 1014.24 417.054 1283.88 399.458C1553.53 381.862 1821.74 450.797 2049.45 596.218C2276.89 741.46 2452.04 955.418 2549.47 1206.98C2549.56 1207.22 2549.65 1207.45 2549.74 1207.68C2549.77 1207.76 2549.8 1207.84 2549.83 1207.92" stroke="#671211"/>
<path d="M2709.57 806.674C2539.63 594.044 2300.11 440.56 2025.83 368.544C1751.22 296.439 1456.1 309.774 1183.5 406.603C910.887 503.433 675.029 678.699 510.288 906.862C345.751 1134.74 260.743 1403.5 267.605 1674.06M266.565 1675.12C266.556 1674.79 266.548 1674.45 266.539 1674.12C259.671 1403.35 344.746 1134.38 509.413 906.318C674.284 677.974 910.328 502.57 1183.15 405.664C1455.98 308.758 1751.32 295.413 2026.15 367.575C2300.65 439.647 2540.35 593.253 2710.44 806.051C2710.59 806.248 2710.75 806.446 2710.91 806.643C2710.96 806.709 2711.01 806.774 2711.07 806.84" stroke="#671211"/>
</svg>
