<svg width="70" height="70" viewBox="0 0 70 70" fill="none" xmlns="http://www.w3.org/2000/svg">
<path d="M18.5314 36.2378H57.0091C57.3959 36.2378 57.7314 36.0183 57.8979 35.6971C58.0222 35.5304 58.0957 35.3236 58.0957 35.0997C58.0957 34.5472 57.6478 34.0994 57.0953 34.0994L18.4969 34.0996C21.5468 32.9005 23.8531 31.4636 25.5849 29.6214C28.479 26.5428 29.6259 22.4864 30.2078 17.0514C30.2667 16.5021 29.869 16.009 29.3197 15.9502C28.7703 15.8914 28.2773 16.2891 28.2185 16.8384C27.6499 22.1487 26.5636 25.6593 24.1272 28.251C21.7567 30.7725 17.9753 32.5673 11.6667 34.0996L11.7012 36.2378C18.0097 37.7701 21.7913 39.5648 24.1617 42.0863C26.5982 44.6781 27.6845 48.1887 28.253 53.499C28.3118 54.0483 28.8049 54.446 29.3542 54.3872C29.9036 54.3283 30.3012 53.8353 30.2424 53.286C29.6605 47.851 28.5136 43.7946 25.6194 40.7159C23.8876 38.8738 21.5814 37.4368 18.5314 36.2378Z" fill="white"/>
<path fill-rule="evenodd" clip-rule="evenodd" d="M35 67.2778C52.8265 67.2778 67.2778 52.8265 67.2778 35C67.2778 17.1735 52.8265 2.72222 35 2.72222C17.1735 2.72222 2.72222 17.1735 2.72222 35C2.72222 52.8265 17.1735 67.2778 35 67.2778ZM35 70C54.33 70 70 54.33 70 35C70 15.67 54.33 0 35 0C15.67 0 0 15.67 0 35C0 54.33 15.67 70 35 70Z" fill="white"/>
</svg>
