<svg width="40" height="22" viewBox="0 0 40 22" fill="none" xmlns="http://www.w3.org/2000/svg">
<path d="M36.6667 0.166504H15C13.1667 0.166504 11.6667 1.6665 11.6667 3.49984V18.4998C11.6667 20.3498 13.1667 21.8332 15 21.8332H36.6667C38.5167 21.8332 40 20.3498 40 18.4998V3.49984C40 1.6665 38.5167 0.166504 36.6667 0.166504ZM36.6667 6.28317L25.8333 11.8332L15 6.28317V3.49984L25.8333 9.01651L36.6667 3.49984V6.28317ZM8.33333 18.4998C8.33333 18.7832 8.38333 19.0498 8.41667 19.3332H1.66667C0.746667 19.3332 0 18.5832 0 17.6665C0 16.7498 0.746667 15.9998 1.66667 15.9998H8.33333V18.4998ZM5 2.6665H8.41667C8.38333 2.94984 8.33333 3.2165 8.33333 3.49984V5.99984H5C4.08333 5.99984 3.33333 5.24984 3.33333 4.33317C3.33333 3.4165 4.08333 2.6665 5 2.6665ZM1.66667 10.9998C1.66667 10.0832 2.41667 9.33317 3.33333 9.33317H8.33333V12.6665H3.33333C2.41667 12.6665 1.66667 11.9165 1.66667 10.9998Z" fill="white"/>
</svg>
