<svg width="34" height="24" viewBox="0 0 34 24" fill="none" xmlns="http://www.w3.org/2000/svg">
<path d="M13.6667 17.0002L22.3167 12.0002L13.6667 7.00016V17.0002ZM32.9333 3.95016C33.15 4.7335 33.3 5.7835 33.4 7.11683C33.5167 8.45016 33.5667 9.60016 33.5667 10.6002L33.6667 12.0002C33.6667 15.6502 33.4 18.3335 32.9333 20.0502C32.5167 21.5502 31.55 22.5168 30.05 22.9335C29.2667 23.1502 27.8333 23.3002 25.6333 23.4002C23.4667 23.5168 21.4833 23.5668 19.65 23.5668L17 23.6668C10.0167 23.6668 5.66667 23.4002 3.95 22.9335C2.45 22.5168 1.48333 21.5502 1.06667 20.0502C0.849999 19.2668 0.699999 18.2168 0.599999 16.8835C0.483332 15.5502 0.433332 14.4002 0.433332 13.4002L0.333332 12.0002C0.333332 8.35016 0.599999 5.66683 1.06667 3.95016C1.48333 2.45016 2.45 1.4835 3.95 1.06683C4.73333 0.850163 6.16667 0.700163 8.36667 0.600163C10.5333 0.483496 12.5167 0.433496 14.35 0.433496L17 0.333496C23.9833 0.333496 28.3333 0.600163 30.05 1.06683C31.55 1.4835 32.5167 2.45016 32.9333 3.95016Z" fill="white"/>
</svg>
